<?xml version="1.0" standalone="no"?>
<!DOCTYPE svg PUBLIC "-//W3C//DTD SVG 20010904//EN"
 "http://www.w3.org/TR/2001/REC-SVG-20010904/DTD/svg10.dtd">
<svg version="1.0" xmlns="http://www.w3.org/2000/svg"
 width="400.000000pt" height="400.000000pt" viewBox="0 0 400.000000 400.000000"
 preserveAspectRatio="xMidYMid meet">
<metadata>
Created by potrace 1.14, written by Peter Selinger 2001-2017
</metadata>
<g transform="translate(0.000000,400.000000) scale(0.100000,-0.100000)"
fill="#000000" stroke="none">
<path d="M0 2000 l0 -2000 2000 0 2000 0 0 2000 0 2000 -2000 0 -2000 0 0
-2000z m1820 1005 l0 -66 81 3 82 3 1 59 c1 84 24 88 28 4 l3 -63 77 -3 77 -3
3 62 c2 39 8 64 16 67 9 3 12 -14 12 -61 l0 -64 68 -2 c58 -1 70 -5 90 -27 18
-20 22 -37 22 -90 l0 -64 60 0 c33 0 60 -4 60 -10 0 -6 -27 -10 -60 -10 l-60
0 0 -80 0 -80 60 0 c47 0 60 -3 60 -15 0 -12 -13 -15 -60 -15 l-60 0 0 -80 0
-80 60 0 c48 0 60 -3 60 -16 0 -13 -11 -15 -57 -13 l-58 3 -5 -68 c-4 -59 -9
-71 -33 -92 -23 -20 -39 -24 -88 -24 l-59 0 0 -55 0 -55 145 0 c105 0 145 3
145 12 0 20 42 58 65 58 33 0 75 -44 75 -77 0 -47 -25 -73 -70 -73 -39 0 -86
32 -74 52 3 4 -67 8 -155 8 l-160 0 -3 65 c-2 36 -6 65 -10 65 -5 0 -39 0 -78
0 l-70 0 0 -210 c0 -169 3 -210 13 -210 23 0 50 -38 50 -70 0 -42 -28 -70 -72
-70 -45 0 -55 7 -68 45 -12 37 1 82 28 90 18 6 19 18 19 215 0 127 -4 210 -10
212 -5 2 -41 2 -80 0 l-70 -4 0 -64 0 -64 -150 0 -150 0 -12 -25 c-19 -43 -91
-51 -120 -14 -29 35 -23 84 12 109 39 28 78 20 105 -20 l20 -30 138 0 137 0 0
54 0 54 -65 4 c-92 6 -115 29 -115 114 l0 63 -60 3 c-80 4 -82 22 -2 26 l62 3
0 79 0 80 -66 0 c-48 0 -65 3 -62 13 3 7 28 13 66 15 l62 3 0 79 0 80 -59 0
c-33 0 -63 5 -66 10 -4 6 18 10 59 10 l66 0 0 68 c0 91 18 110 110 114 l65 3
3 63 c4 82 22 80 22 -3z m-402 -442 c3 -23 3 -23 -136 -23 -126 0 -142 -2
-166 -21 l-26 -20 0 -520 0 -519 885 0 c780 0 885 -2 885 -15 0 -13 -105 -15
-885 -15 l-885 0 0 -85 c0 -140 -105 -125 898 -125 471 0 867 3 878 6 12 3 27
17 33 30 8 18 11 204 11 630 l0 605 -25 24 c-23 24 -29 25 -165 25 l-140 0 0
26 0 26 154 -4 c137 -3 156 -5 176 -23 51 -46 50 -30 50 -695 l0 -620 -34 -38
-34 -37 -346 -3 c-190 -2 -346 -7 -346 -11 0 -4 9 -34 21 -67 11 -32 25 -78
31 -101 l11 -42 71 -3 c41 -2 70 -7 69 -13 -4 -16 -805 -14 -810 3 -4 9 14 12
66 12 l70 0 10 33 c6 17 21 66 36 107 14 41 25 75 25 77 0 1 -154 4 -342 5
-325 3 -344 4 -370 23 -15 11 -32 31 -38 45 -7 17 -10 223 -8 652 l3 627 29
30 c36 38 42 39 206 37 132 -1 135 -2 138 -23z"/>
<path d="M1682 2887 c-17 -20 -18 -622 -2 -642 11 -13 60 -15 319 -15 225 0
310 3 319 12 9 9 12 95 12 325 0 299 -1 313 -19 323 -31 16 -616 14 -629 -3z
m284 -145 c6 -4 13 -16 17 -27 3 -11 17 -49 30 -85 55 -146 77 -208 77 -214 0
-3 -18 -6 -40 -6 -34 0 -42 4 -55 30 -16 30 -18 31 -78 28 -56 -3 -62 -5 -67
-28 -5 -21 -12 -25 -48 -28 -31 -2 -42 1 -42 11 0 15 23 86 39 122 5 11 22 56
37 100 15 44 32 86 37 93 10 13 75 16 93 4z m242 -4 c13 -13 17 -262 6 -305
-5 -19 -13 -23 -45 -23 l-39 0 0 170 0 170 33 0 c18 0 38 -5 45 -12z"/>
<path d="M1912 2636 c-6 -13 -14 -40 -17 -60 -7 -36 -7 -36 29 -36 20 0 36 1
36 3 0 1 -8 28 -18 60 -18 55 -19 57 -30 33z"/>
<path d="M1417 2076 c-10 -26 4 -47 27 -44 15 2 21 10 21 28 0 29 -38 41 -48
16z"/>
<path d="M2534 2076 c-9 -24 4 -48 23 -44 12 2 18 12 18 28 0 29 -32 41 -41
16z"/>
<path d="M1974 1705 c-9 -23 3 -45 25 -45 20 0 37 32 26 50 -9 15 -45 12 -51
-5z"/>
<path d="M1796 1077 c-16 -50 -31 -100 -34 -109 -4 -17 12 -18 237 -18 132 0
241 2 241 3 0 2 -14 44 -31 93 -17 49 -33 97 -36 107 -5 15 -22 17 -177 17
l-171 0 -29 -93z"/>
</g>
</svg>
